<?xml version="1.0" encoding="UTF-8"?><svg id="Layer_1" xmlns="http://www.w3.org/2000/svg" viewBox="0 0 150.76 18.4"><defs><style>.cls-1{fill:#fff;}</style></defs><path class="cls-1" d="M1.21,15.3c.3-.24.53-.56.69-.99.16-.42.26-.92.3-1.5.04-.58.06-1.22.06-1.94v-4.98c0-.8-.02-1.58-.05-2.34-.03-.77-.06-1.55-.1-2.34.16.02.31.05.45.06s.29.03.43.03.29,0,.43-.03c.14-.02.3-.04.45-.06-.04.8-.07,1.58-.1,2.34-.03.77-.05,1.55-.05,2.34,0,.54,0,1.1,0,1.68,0,.58.01,1.15.02,1.71,0,.56.01,1.1.02,1.62,0,.52,0,1,0,1.43,0,.54-.09,1.04-.26,1.49-.18.45-.43.85-.75,1.2-.33.35-.71.62-1.17.82-.45.2-.94.3-1.47.3l-.14-.51c.51,0,.91-.12,1.21-.35Z"/><path class="cls-1" d="M6.86,5.92c.54-.41,1.04-.69,1.5-.83.46-.14.93-.22,1.41-.22.43,0,.83.06,1.19.19s.67.31.92.54c.25.24.45.52.6.85.14.33.22.7.22,1.09,0,.69-.01,1.37-.04,2.05-.02.68-.04,1.4-.04,2.16,0,.14,0,.3,0,.46,0,.16.03.31.08.43.05.13.12.23.21.32.09.08.23.13.41.13.06,0,.12,0,.19,0,.07,0,.13-.03.19-.06v.4c-.13.06-.3.11-.5.15-.2.04-.42.05-.66.05-.39,0-.68-.1-.89-.3-.21-.2-.33-.46-.36-.77-.43.43-.86.75-1.28.96s-.94.31-1.56.31c-.3,0-.6-.04-.89-.13-.29-.08-.55-.22-.77-.42-.22-.19-.4-.43-.54-.7-.14-.27-.21-.58-.21-.93,0-.72.23-1.28.68-1.68.45-.4,1.08-.66,1.87-.8.65-.11,1.16-.2,1.53-.28.37-.08.64-.16.81-.24.17-.08.28-.18.32-.3.04-.11.05-.26.05-.44,0-.3-.04-.59-.11-.87-.07-.28-.19-.52-.34-.72-.16-.2-.36-.37-.62-.5-.25-.13-.56-.19-.92-.19-.48,0-.93.11-1.35.33-.42.22-.73.52-.93.9h-.2v-.94ZM11.33,9.14c-.21.07-.44.13-.71.18-.27.05-.55.1-.82.15-.28.05-.55.12-.82.21-.27.08-.51.2-.72.34-.21.14-.38.33-.51.54s-.19.49-.19.83c0,.57.16,1,.49,1.28.33.29.69.43,1.09.43.46,0,.88-.13,1.26-.38.38-.25.67-.55.88-.89l.07-2.71Z"/><path class="cls-1" d="M15.11,9.37c0-.78.13-1.46.4-2.03.27-.57.61-1.03,1.04-1.4.43-.37.92-.64,1.47-.81.55-.17,1.12-.26,1.7-.26.66,0,1.26.08,1.78.24.52.16.9.35,1.13.55-.08.18-.16.37-.23.57-.07.2-.12.41-.17.62h-.14c-.08-.16-.2-.32-.34-.48-.14-.16-.32-.31-.52-.45-.2-.14-.42-.25-.66-.34-.24-.09-.51-.14-.8-.14-.54,0-1.01.1-1.4.3-.39.2-.71.47-.96.82-.25.35-.43.76-.54,1.24-.11.48-.17.99-.17,1.55,0,1.24.27,2.18.8,2.81.53.63,1.31.95,2.33.95.24,0,.49-.03.74-.1.25-.07.5-.16.74-.27.24-.11.47-.25.68-.41.21-.16.4-.33.55-.51l.09.05c-.06.29-.1.59-.11.89-.36.29-.81.54-1.35.74-.54.21-1.09.31-1.67.31-.52,0-1.04-.08-1.57-.23-.52-.15-1-.4-1.42-.76-.42-.36-.76-.82-1.02-1.38-.26-.57-.39-1.26-.39-2.08Z"/><path class="cls-1" d="M32.28,13.25c0,.39,0,.82,0,1.29,0,.48.02.95.03,1.42.01.47.03.92.05,1.35.02.43.04.79.06,1.09-.34-.06-.61-.09-.81-.09s-.48.03-.81.09c.02-.3.05-.67.06-1.09.02-.43.03-.88.05-1.35.01-.47.02-.94.03-1.42,0-.48,0-.91,0-1.29v-1.36h-.04c-.35.69-.78,1.18-1.29,1.48-.51.3-1.06.45-1.66.45-.45,0-.9-.07-1.35-.21-.45-.14-.86-.38-1.22-.72-.36-.34-.66-.8-.89-1.37-.23-.57-.34-1.27-.34-2.1s.11-1.48.34-2.05c.23-.57.52-1.04.89-1.41.36-.37.77-.64,1.22-.82s.9-.27,1.35-.27c.82,0,1.47.19,1.94.56.47.37.81.84,1.01,1.39h.04c0-.29-.01-.58-.04-.87-.02-.29-.06-.59-.11-.9.34.06.61.09.81.09s.48-.03.81-.09c-.02.31-.05.69-.06,1.12-.02.43-.03.89-.05,1.37-.01.48-.02.96-.03,1.44,0,.48,0,.93,0,1.34v2.93ZM30.95,9.19c0-.46-.05-.9-.14-1.33-.1-.43-.25-.81-.46-1.14-.21-.33-.48-.6-.81-.8-.33-.2-.72-.3-1.19-.3-.29,0-.59.06-.9.17-.31.11-.59.32-.84.62-.25.3-.46.7-.62,1.2-.16.51-.24,1.16-.24,1.95,0,.52.05,1,.15,1.44.1.44.25.82.45,1.15.2.33.45.58.76.77.31.19.66.28,1.06.28.46,0,.86-.11,1.2-.34.34-.23.63-.53.87-.91.24-.38.41-.81.52-1.29.11-.48.17-.97.17-1.47Z"/><path class="cls-1" d="M34.84,10.91c0-.64,0-1.19.03-1.64.02-.45.03-.9.03-1.35,0-.42,0-.88,0-1.38,0-.49-.02-1-.03-1.5.3.06.55.09.76.09.19,0,.44-.03.74-.09-.06.72-.11,1.52-.14,2.38-.03.86-.05,1.75-.05,2.65,0,.63.05,1.11.16,1.44.11.33.24.58.4.75.17.19.38.35.64.48.26.13.56.19.91.19.51,0,.93-.11,1.27-.33.34-.22.59-.5.74-.82.08-.2.15-.38.2-.52.05-.14.09-.34.12-.58.03-.24.05-.57.05-.98,0-.41,0-.97,0-1.68v-1.52c0-.27,0-.52,0-.76,0-.24-.02-.47-.03-.69.13.02.26.05.38.06.12.02.25.03.38.03s.26,0,.38-.03c.12-.02.24-.04.36-.06-.06.94-.1,1.85-.11,2.72-.01.87-.02,1.8-.02,2.78,0,.54,0,1.07.02,1.59.01.52.03,1.02.05,1.5-.24-.02-.48-.04-.71-.04s-.46.01-.71.04c.01-.11.02-.22.03-.34,0-.12,0-.25,0-.38v-.78h-.04c-.31.58-.72,1-1.21,1.28-.49.27-1.03.41-1.61.41-.94,0-1.68-.25-2.22-.75-.54-.5-.81-1.22-.81-2.16Z"/><path class="cls-1" d="M44.16,9.63c0-1.48.35-2.65,1.06-3.49.71-.84,1.73-1.27,3.09-1.27.64,0,1.19.1,1.66.3.46.2.85.46,1.17.8.31.33.55.72.7,1.17.15.45.23.92.23,1.43,0,.12,0,.24,0,.35,0,.11-.02.23-.03.35-.65-.01-1.3-.02-1.94-.04-.64-.01-1.28-.02-1.94-.02-.4,0-.79,0-1.19.02-.39.01-.79.02-1.19.04-.01.06-.02.15-.02.27v.24c0,.47.07.91.21,1.32.14.41.34.76.61,1.06.27.3.59.53.98.71.39.18.83.26,1.34.26.24,0,.49-.03.74-.1.25-.07.5-.16.74-.27.24-.11.47-.25.68-.41.21-.16.4-.33.55-.51l.09.05-.11.89c-.36.29-.81.54-1.35.74-.54.21-1.09.31-1.67.31-.65,0-1.25-.1-1.78-.3-.54-.2-1-.49-1.39-.87-.39-.38-.69-.83-.9-1.35-.21-.52-.32-1.08-.32-1.68ZM48.34,5.45c-.45,0-.82.1-1.13.31-.31.21-.56.46-.76.77s-.35.65-.45,1.01c-.1.37-.17.71-.19,1.04.37.01.76.02,1.17.04.4.01.8.02,1.19.02s.8,0,1.21-.02c.41-.01.81-.02,1.19-.04,0-.33-.03-.67-.08-1.03s-.16-.7-.33-1.01c-.16-.31-.39-.57-.68-.78-.29-.21-.67-.31-1.14-.31Z"/><path class="cls-1" d="M54.41,3.87c0-.48-.02-.96-.03-1.43-.01-.47-.03-.92-.05-1.35-.02-.43-.04-.79-.06-1.09.34.06.61.09.81.09s.48-.03.81-.09c-.02.3-.05.67-.06,1.09-.02.43-.03.88-.05,1.35-.01.47-.02.95-.03,1.43,0,.48,0,.93,0,1.34v3.28c0,.41,0,.86,0,1.34,0,.48.01.96.03,1.43.01.47.03.92.05,1.34.02.42.04.77.06,1.05-.28-.02-.55-.04-.81-.04s-.54.01-.81.04c.02-.28.05-.63.06-1.05.02-.42.03-.87.05-1.34.01-.47.02-.95.03-1.43,0-.48,0-.93,0-1.34v-3.28c0-.41,0-.86,0-1.34Z"/><path class="cls-1" d="M61.62,13.66c-.13-.33-.3-.75-.52-1.27-.21-.52-.44-1.06-.68-1.64-.24-.57-.49-1.16-.74-1.76s-.49-1.16-.71-1.68c-.22-.52-.42-.99-.59-1.38-.17-.4-.3-.69-.38-.89.16.02.3.05.43.06.13.02.27.03.4.03s.27,0,.4-.03c.13-.02.28-.04.43-.06.37,1.16.79,2.3,1.25,3.44.46,1.13.94,2.3,1.45,3.51.51-1.06.99-2.2,1.46-3.4.46-1.21.88-2.39,1.24-3.55.24.06.44.09.6.09s.36-.03.6-.09c-.08.17-.22.46-.41.86-.19.4-.41.89-.67,1.45-.26.56-.54,1.18-.85,1.86-.31.68-.62,1.38-.94,2.1-.32.72-.64,1.43-.95,2.14-.31.71-.6,1.38-.87,2.01-.27.63-.5,1.21-.7,1.72-.2.51-.35.92-.44,1.22-.24-.06-.45-.09-.62-.09s-.37.03-.62.09c.95-1.58,1.76-3.16,2.42-4.74Z"/><path class="cls-1" d="M73.4,6.51c-.35-.46-.83-.7-1.45-.7-.84,0-1.46.26-1.85.78-.39.52-.59,1.25-.59,2.19v1.54c0,.54,0,1.11.03,1.71.02.6.06,1.14.12,1.62-.28-.02-.55-.04-.81-.04s-.54.01-.81.04c.06-.48.1-1.02.12-1.62s.03-1.17.03-1.71v-1.88c0-.54,0-1.11-.03-1.71s-.06-1.15-.12-1.67c.34.06.61.09.81.09.1,0,.2,0,.32-.03.11-.02.25-.04.41-.06-.04.48-.05.97-.05,1.45h.04c.34-.52.74-.92,1.21-1.2.47-.28,1.03-.43,1.68-.43.34,0,.68.05,1.02.14.34.1.65.26.93.5.28.24.5.56.68.96.17.4.26.92.26,1.55,0,.52-.01,1.05-.04,1.6-.02.55-.04,1.13-.04,1.75v1.18c0,.19,0,.38,0,.57,0,.19.01.37.03.53-.24-.02-.49-.04-.76-.04s-.5.01-.74.04c.02-.63.05-1.27.08-1.94.03-.66.05-1.35.05-2.04v-1.1c0-.9-.18-1.59-.52-2.05Z"/><path class="cls-1" d="M92.36,13.22c-.24.11-.52.22-.85.31-.33.09-.7.17-1.11.24-.41.07-.84.11-1.28.11-.95,0-1.83-.14-2.64-.41-.81-.27-1.51-.68-2.09-1.24-.59-.55-1.04-1.23-1.38-2.04-.33-.8-.5-1.72-.5-2.74s.17-1.94.5-2.74c.33-.8.8-1.48,1.39-2.04.6-.55,1.31-.98,2.14-1.27s1.75-.43,2.75-.43c.8,0,1.52.08,2.18.24s1.24.36,1.75.59c-.1.17-.18.4-.24.69-.06.29-.11.53-.14.72l-.11.04c-.12-.14-.29-.31-.51-.49s-.47-.36-.76-.52c-.29-.17-.62-.31-.98-.43-.36-.11-.76-.17-1.19-.17-.71,0-1.37.11-1.98.34-.61.23-1.14.58-1.59,1.06-.45.48-.81,1.08-1.06,1.81-.25.73-.38,1.6-.38,2.6s.13,1.87.38,2.6c.25.73.61,1.33,1.06,1.81.45.48.98.83,1.59,1.06.61.23,1.27.34,1.98.34.43,0,.84-.05,1.2-.16.37-.11.71-.24,1.01-.39.31-.15.59-.31.83-.49.25-.17.46-.33.62-.46l.07.07-.16,1.07c-.11.1-.28.2-.52.32Z"/><path class="cls-1" d="M94.45,9.37c0-.82.13-1.52.39-2.09.26-.57.6-1.04,1.02-1.39.42-.36.9-.62,1.42-.78.52-.16,1.05-.24,1.57-.24s1.06.08,1.57.24c.52.16.99.42,1.41.78.42.36.76.82,1.02,1.39.26.57.39,1.27.39,2.09s-.13,1.52-.39,2.09c-.26.57-.6,1.04-1.02,1.39-.42.36-.89.61-1.41.75-.52.14-1.04.22-1.57.22s-1.04-.07-1.57-.22-1-.4-1.42-.75c-.42-.36-.76-.82-1.02-1.39-.26-.57-.39-1.27-.39-2.09ZM96.04,9.37c0,.51.05,1,.14,1.47.09.47.24.89.46,1.26.22.37.51.66.87.88s.81.33,1.34.33.98-.11,1.34-.33.65-.51.87-.88c.22-.37.37-.79.46-1.26.09-.47.14-.96.14-1.47s-.05-1-.14-1.47c-.09-.47-.24-.89-.46-1.26-.22-.37-.51-.66-.87-.88-.36-.22-.81-.33-1.34-.33s-.98.11-1.34.33c-.36.22-.65.51-.87.88-.22.37-.37.79-.46,1.26-.09.47-.14.96-.14,1.47Z"/><path class="cls-1" d="M105.71,3.87c0-.48-.02-.96-.03-1.43-.01-.47-.03-.92-.05-1.35-.02-.43-.04-.79-.06-1.09.34.06.61.09.81.09s.48-.03.81-.09c-.02.3-.05.67-.06,1.09-.02.43-.03.88-.05,1.35-.01.47-.02.95-.03,1.43,0,.48,0,.93,0,1.34v3.28c0,.41,0,.86,0,1.34,0,.48.01.96.03,1.43.01.47.03.92.05,1.34.02.42.04.77.06,1.05-.28-.02-.55-.04-.81-.04s-.54.01-.81.04c.02-.28.05-.63.06-1.05.02-.42.03-.87.05-1.34.01-.47.02-.95.03-1.43,0-.48,0-.93,0-1.34v-3.28c0-.41,0-.86,0-1.34Z"/><path class="cls-1" d="M109.54,9.63c0-1.48.35-2.65,1.06-3.49.71-.84,1.73-1.27,3.09-1.27.64,0,1.19.1,1.66.3.46.2.85.46,1.17.8.31.33.55.72.7,1.17.15.45.23.92.23,1.43,0,.12,0,.24,0,.35,0,.11-.02.23-.03.35-.65-.01-1.3-.02-1.94-.04-.64-.01-1.28-.02-1.94-.02-.4,0-.79,0-1.19.02-.39.01-.79.02-1.19.04-.01.06-.02.15-.02.27v.24c0,.47.07.91.21,1.32.14.41.34.76.61,1.06.27.3.59.53.98.71.39.18.83.26,1.34.26.24,0,.49-.03.74-.1.25-.07.5-.16.74-.27.24-.11.47-.25.68-.41.21-.16.4-.33.55-.51l.09.05-.11.89c-.36.29-.81.54-1.35.74-.54.21-1.09.31-1.67.31-.65,0-1.25-.1-1.78-.3-.54-.2-1-.49-1.39-.87-.39-.38-.69-.83-.9-1.35-.21-.52-.32-1.08-.32-1.68ZM113.72,5.45c-.45,0-.82.1-1.13.31-.31.21-.56.46-.76.77s-.35.65-.45,1.01c-.1.37-.17.71-.19,1.04.37.01.76.02,1.17.04.4.01.8.02,1.19.02s.8,0,1.21-.02c.41-.01.81-.02,1.19-.04,0-.33-.03-.67-.08-1.03s-.16-.7-.33-1.01c-.16-.31-.39-.57-.68-.78-.29-.21-.67-.31-1.14-.31Z"/><path class="cls-1" d="M119.34,6.72c-.02-.6-.06-1.15-.12-1.67.34.06.61.09.81.09.1,0,.2,0,.32-.03.11-.02.25-.04.41-.06-.04.48-.05.97-.05,1.45h.04c.64-1.09,1.54-1.63,2.7-1.63.3,0,.6.05.89.14.29.09.55.21.79.37.24.16.44.35.61.57.17.22.28.46.34.71h.04c.29-.58.68-1.02,1.19-1.33.5-.31,1.08-.46,1.73-.46.4,0,.77.05,1.1.16.34.11.63.28.88.51.25.23.44.52.58.89.14.36.21.8.21,1.3,0,.21,0,.43-.02.67-.01.24-.02.52-.04.84-.01.32-.02.68-.04,1.09-.01.4-.02.87-.02,1.4,0,.33,0,.64,0,.94,0,.3.02.63.05.98-.13-.02-.27-.04-.4-.04h-.78c-.13,0-.27.01-.4.04.04-.3.08-.91.12-1.83.04-.92.06-2.2.06-3.84,0-.3-.03-.59-.1-.85-.07-.27-.17-.49-.32-.69-.14-.19-.34-.35-.58-.46-.24-.11-.54-.17-.9-.17-.43,0-.8.08-1.1.25-.3.17-.54.37-.71.6-.1.13-.17.27-.23.4-.05.13-.1.33-.13.61-.03.27-.05.65-.06,1.14-.01.49-.02,1.16-.02,2.02,0,.52,0,.99.03,1.42.02.43.04.9.06,1.4-.28-.02-.54-.04-.8-.04s-.52.01-.8.04c.06-.66.1-1.34.13-2.03.02-.69.04-1.36.04-2.03,0-.57,0-1.01,0-1.33,0-.32-.02-.57-.05-.76-.02-.19-.06-.34-.1-.46-.04-.12-.1-.25-.17-.4-.13-.23-.34-.43-.62-.59-.28-.16-.58-.24-.88-.24-.8,0-1.38.26-1.76.78-.37.52-.56,1.25-.56,2.19v1.54c0,.54,0,1.11.03,1.71.02.6.06,1.14.12,1.62-.28-.02-.55-.04-.81-.04s-.54.01-.81.04c.06-.48.1-1.02.12-1.62.02-.6.03-1.17.03-1.71v-1.88c0-.54,0-1.11-.03-1.71Z"/><path class="cls-1" d="M134.59,5.92c.54-.41,1.04-.69,1.5-.83.46-.14.93-.22,1.41-.22.43,0,.83.06,1.19.19s.67.31.92.54c.25.24.45.52.6.85.14.33.22.7.22,1.09,0,.69-.01,1.37-.04,2.05-.02.68-.04,1.4-.04,2.16,0,.14,0,.3,0,.46,0,.16.03.31.08.43.05.13.12.23.21.32.09.08.23.13.41.13.06,0,.12,0,.19,0,.07,0,.13-.03.19-.06v.4c-.13.06-.3.11-.5.15-.2.04-.42.05-.66.05-.39,0-.68-.1-.89-.3-.21-.2-.33-.46-.36-.77-.43.43-.86.75-1.28.96s-.94.31-1.56.31c-.3,0-.6-.04-.89-.13-.29-.08-.55-.22-.77-.42-.22-.19-.4-.43-.54-.7-.14-.27-.21-.58-.21-.93,0-.72.23-1.28.68-1.68.45-.4,1.08-.66,1.87-.8.65-.11,1.16-.2,1.53-.28.37-.08.64-.16.81-.24.17-.08.28-.18.32-.3.04-.11.05-.26.05-.44,0-.3-.04-.59-.11-.87-.07-.28-.19-.52-.34-.72-.16-.2-.36-.37-.62-.5-.25-.13-.56-.19-.92-.19-.48,0-.93.11-1.35.33-.42.22-.73.52-.93.9h-.2v-.94ZM139.06,9.14c-.21.07-.44.13-.71.18-.27.05-.55.1-.82.15-.28.05-.55.12-.82.21-.27.08-.51.2-.72.34-.21.14-.38.33-.51.54s-.19.49-.19.83c0,.57.16,1,.49,1.28.33.29.69.43,1.09.43.46,0,.88-.13,1.26-.38.38-.25.67-.55.88-.89l.07-2.71Z"/><path class="cls-1" d="M148.83,6.51c-.35-.46-.83-.7-1.45-.7-.84,0-1.46.26-1.85.78-.39.52-.59,1.25-.59,2.19v1.54c0,.54,0,1.11.03,1.71.02.6.06,1.14.12,1.62-.28-.02-.55-.04-.81-.04s-.54.01-.81.04c.06-.48.1-1.02.12-1.62s.03-1.17.03-1.71v-1.88c0-.54,0-1.11-.03-1.71s-.06-1.15-.12-1.67c.34.06.61.09.81.09.1,0,.2,0,.32-.03.11-.02.25-.04.41-.06-.04.48-.05.97-.05,1.45h.04c.34-.52.74-.92,1.21-1.2.47-.28,1.03-.43,1.68-.43.34,0,.68.05,1.02.14.34.1.65.26.93.5.28.24.5.56.68.96.17.4.26.92.26,1.55,0,.52-.01,1.05-.04,1.6-.02.55-.04,1.13-.04,1.75v1.18c0,.19,0,.38,0,.57,0,.19.01.37.03.53-.24-.02-.49-.04-.76-.04s-.5.01-.74.04c.02-.63.05-1.27.08-1.94.03-.66.05-1.35.05-2.04v-1.1c0-.9-.18-1.59-.52-2.05Z"/></svg>