<?xml version="1.0" encoding="UTF-8"?>
<svg id="Layer_1" data-name="Layer 1" xmlns="http://www.w3.org/2000/svg" viewBox="0 0 399.89 48.82">
  <path d="M3.22,40.58c.8-.62,1.41-1.5,1.82-2.62.42-1.12.68-2.45.79-3.98.11-1.54.17-3.25.17-5.14v-13.2c0-2.11-.04-4.18-.12-6.22-.08-2.03-.17-4.1-.26-6.22.42.06.82.12,1.2.17s.77.07,1.15.07.77-.02,1.15-.07c.38-.05.78-.1,1.2-.17-.1,2.11-.18,4.18-.26,6.22-.08,2.03-.12,4.1-.12,6.22,0,1.44,0,2.93.02,4.46.02,1.54.03,3.05.05,4.54.02,1.49.03,2.92.05,4.3.02,1.38.02,2.64.02,3.79,0,1.44-.23,2.76-.7,3.96-.46,1.2-1.13,2.26-1.99,3.19-.86.93-1.9,1.66-3.1,2.18-1.2.53-2.5.79-3.91.79l-.38-1.34c1.34,0,2.42-.31,3.22-.94Z"/>
  <path d="M18.19,15.7c1.44-1.09,2.77-1.82,3.98-2.21,1.22-.38,2.46-.58,3.74-.58,1.15,0,2.21.17,3.17.5s1.78.82,2.45,1.44c.67.62,1.2,1.38,1.58,2.26.38.88.58,1.85.58,2.9,0,1.82-.03,3.64-.1,5.45-.06,1.81-.1,3.72-.1,5.74,0,.38,0,.79.02,1.22.02.43.09.82.22,1.15.13.34.31.62.55.84.24.22.6.34,1.08.34.16,0,.33,0,.5-.02.18-.02.34-.07.5-.17v1.06c-.35.16-.79.29-1.32.38-.53.1-1.11.14-1.75.14-1.02,0-1.81-.26-2.35-.79-.54-.53-.86-1.21-.96-2.04-1.15,1.15-2.29,2-3.41,2.54s-2.5.82-4.13.82c-.8,0-1.58-.11-2.35-.34-.77-.22-1.45-.59-2.04-1.1-.59-.51-1.07-1.13-1.44-1.85-.37-.72-.55-1.54-.55-2.47,0-1.92.6-3.41,1.8-4.46,1.2-1.06,2.86-1.76,4.97-2.11,1.73-.29,3.08-.54,4.06-.74.98-.21,1.7-.42,2.16-.65.46-.22.74-.49.84-.79.1-.3.14-.7.14-1.18,0-.8-.1-1.57-.29-2.3-.19-.74-.5-1.38-.91-1.92-.42-.54-.96-.98-1.63-1.32-.67-.34-1.49-.5-2.45-.5-1.28,0-2.47.29-3.58.86-1.1.58-1.93,1.38-2.47,2.4h-.53v-2.5ZM30.05,24.24c-.54.19-1.18.35-1.9.48-.72.13-1.45.26-2.18.41-.74.14-1.46.33-2.18.55-.72.22-1.36.53-1.92.91-.56.38-1.01.86-1.34,1.44s-.5,1.31-.5,2.21c0,1.5.43,2.64,1.3,3.41.86.77,1.82,1.15,2.88,1.15,1.22,0,2.33-.34,3.34-1.01,1.01-.67,1.78-1.46,2.33-2.35l.19-7.2Z"/>
  <path d="M40.08,24.86c0-2.08.35-3.87,1.06-5.38.7-1.5,1.62-2.74,2.76-3.72,1.14-.98,2.44-1.7,3.91-2.16,1.47-.46,2.98-.7,4.51-.7,1.76,0,3.34.22,4.73.65,1.39.43,2.39.92,3,1.46-.22.48-.42.98-.6,1.51-.18.53-.33,1.08-.46,1.66h-.38c-.22-.42-.53-.84-.91-1.27-.38-.43-.84-.83-1.37-1.2-.53-.37-1.11-.67-1.75-.91-.64-.24-1.34-.36-2.11-.36-1.44,0-2.68.26-3.72.79-1.04.53-1.89,1.26-2.54,2.18-.66.93-1.14,2.02-1.44,3.29-.3,1.26-.46,2.63-.46,4.1,0,3.3.7,5.78,2.11,7.46,1.41,1.68,3.47,2.52,6.19,2.52.64,0,1.3-.09,1.97-.26.67-.18,1.33-.42,1.97-.72.64-.3,1.24-.66,1.8-1.08.56-.42,1.05-.86,1.46-1.34l.24.14c-.16.77-.26,1.55-.29,2.35-.96.77-2.15,1.42-3.58,1.97-1.42.54-2.9.82-4.44.82-1.38,0-2.76-.2-4.15-.6-1.39-.4-2.65-1.07-3.77-2.02-1.12-.94-2.02-2.17-2.71-3.67-.69-1.5-1.03-3.34-1.03-5.52Z"/>
  <path d="M85.63,35.14c0,1.02,0,2.17.02,3.43.02,1.26.04,2.52.07,3.77.03,1.25.07,2.44.12,3.58.05,1.13.1,2.1.17,2.9-.9-.16-1.62-.24-2.16-.24s-1.26.08-2.16.24c.06-.8.12-1.77.17-2.9.05-1.14.09-2.33.12-3.58.03-1.25.06-2.5.07-3.77.02-1.26.02-2.41.02-3.43v-3.6h-.1c-.93,1.82-2.07,3.14-3.43,3.94-1.36.8-2.82,1.2-4.39,1.2-1.18,0-2.38-.18-3.58-.55-1.2-.37-2.28-1.01-3.24-1.92-.96-.91-1.74-2.12-2.35-3.62-.61-1.5-.91-3.36-.91-5.57s.3-3.93.91-5.45c.61-1.52,1.39-2.77,2.35-3.74.96-.98,2.04-1.7,3.24-2.18s2.39-.72,3.58-.72c2.18,0,3.89.5,5.14,1.49,1.25.99,2.14,2.22,2.69,3.7h.1c0-.77-.03-1.54-.1-2.3-.06-.77-.16-1.57-.29-2.4.9.16,1.62.24,2.16.24s1.26-.08,2.16-.24c-.06.83-.12,1.82-.17,2.98-.05,1.15-.09,2.36-.12,3.62-.03,1.26-.06,2.54-.07,3.82-.02,1.28-.02,2.46-.02,3.55v7.78ZM82.08,24.38c0-1.22-.13-2.39-.38-3.53-.26-1.14-.66-2.14-1.22-3.02-.56-.88-1.27-1.58-2.14-2.11-.86-.53-1.92-.79-3.17-.79-.77,0-1.56.15-2.38.46-.82.3-1.56.85-2.23,1.63-.67.78-1.22,1.85-1.63,3.19-.42,1.34-.62,3.07-.62,5.18,0,1.38.14,2.65.41,3.82.27,1.17.67,2.18,1.2,3.05.53.86,1.2,1.54,2.02,2.04.82.5,1.75.74,2.81.74,1.22,0,2.28-.3,3.19-.91.91-.61,1.68-1.42,2.3-2.42.62-1.01,1.09-2.15,1.39-3.43.3-1.28.46-2.58.46-3.89Z"/>
  <path d="M92.4,28.94c0-1.7.02-3.14.07-4.34.05-1.2.07-2.39.07-3.58,0-1.12,0-2.34-.02-3.65-.02-1.31-.04-2.64-.07-3.98.8.16,1.47.24,2.02.24.51,0,1.17-.08,1.97-.24-.16,1.92-.28,4.02-.36,6.31-.08,2.29-.12,4.63-.12,7.03,0,1.66.14,2.94.43,3.82.29.88.64,1.54,1.06,1.99.45.51,1.02.94,1.7,1.27.69.34,1.5.5,2.42.5,1.34,0,2.46-.29,3.36-.89.9-.59,1.55-1.32,1.97-2.18.22-.54.4-1.01.53-1.39.13-.38.23-.9.31-1.54.08-.64.13-1.5.14-2.59.02-1.09.02-2.58.02-4.46v-4.03c0-.7,0-1.38-.02-2.02-.02-.64-.04-1.25-.07-1.82.35.06.69.12,1.01.17.32.05.66.07,1.01.07s.69-.02,1.01-.07c.32-.05.64-.1.96-.17-.16,2.5-.26,4.9-.29,7.22-.03,2.32-.05,4.78-.05,7.37,0,1.44.02,2.85.05,4.22.03,1.38.08,2.7.14,3.98-.64-.06-1.26-.1-1.87-.1s-1.23.03-1.87.1c.03-.29.06-.59.07-.91.02-.32.02-.66.02-1.01v-2.06h-.1c-.83,1.54-1.9,2.66-3.22,3.38-1.31.72-2.74,1.08-4.27,1.08-2.5,0-4.46-.66-5.88-1.99-1.42-1.33-2.14-3.24-2.14-5.74Z"/>
  <path d="M117.12,25.54c0-3.94.94-7.02,2.81-9.26,1.87-2.24,4.6-3.36,8.18-3.36,1.7,0,3.16.26,4.39.79,1.23.53,2.26,1.23,3.1,2.11.83.88,1.45,1.91,1.85,3.1.4,1.18.6,2.45.6,3.79,0,.32,0,.63-.02.94-.02.3-.04.62-.07.94-1.73-.03-3.44-.06-5.14-.1-1.7-.03-3.41-.05-5.14-.05-1.06,0-2.1.02-3.14.05-1.04.03-2.09.06-3.14.1-.03.16-.05.4-.05.72v.62c0,1.25.18,2.42.55,3.5.37,1.09.9,2.02,1.61,2.81.7.79,1.57,1.41,2.59,1.87,1.02.46,2.21.7,3.55.7.64,0,1.3-.09,1.97-.26.67-.18,1.33-.42,1.97-.72.64-.3,1.24-.66,1.8-1.08.56-.42,1.05-.86,1.46-1.34l.24.14-.29,2.35c-.96.77-2.15,1.42-3.58,1.97-1.42.54-2.9.82-4.44.82-1.73,0-3.3-.26-4.73-.79-1.42-.53-2.66-1.3-3.7-2.3-1.04-1.01-1.84-2.2-2.4-3.58-.56-1.38-.84-2.86-.84-4.46ZM128.21,14.45c-1.18,0-2.18.27-3,.82-.82.54-1.49,1.22-2.02,2.04s-.93,1.71-1.2,2.69c-.27.98-.44,1.9-.5,2.76.99.03,2.02.06,3.1.1,1.07.03,2.12.05,3.14.05s2.13-.02,3.22-.05c1.09-.03,2.14-.06,3.17-.1,0-.86-.07-1.78-.22-2.74s-.43-1.86-.86-2.69c-.43-.83-1.03-1.52-1.8-2.06-.77-.54-1.78-.82-3.02-.82Z"/>
  <path d="M144.31,10.27c-.02-1.28-.04-2.54-.07-3.79-.03-1.25-.07-2.44-.12-3.58-.05-1.14-.1-2.1-.17-2.9.9.16,1.62.24,2.16.24s1.26-.08,2.16-.24c-.06.8-.12,1.77-.17,2.9-.05,1.14-.09,2.33-.12,3.58-.03,1.25-.06,2.51-.07,3.79-.02,1.28-.02,2.46-.02,3.55v8.69c0,1.09,0,2.27.02,3.55.02,1.28.04,2.54.07,3.79.03,1.25.07,2.43.12,3.55.05,1.12.1,2.05.17,2.78-.74-.06-1.46-.1-2.16-.1s-1.42.03-2.16.1c.06-.74.12-1.66.17-2.78.05-1.12.09-2.3.12-3.55.03-1.25.06-2.51.07-3.79.02-1.28.02-2.46.02-3.55v-8.69c0-1.09,0-2.27-.02-3.55Z"/>
  <path d="M163.44,36.24c-.35-.86-.81-1.98-1.37-3.36-.56-1.38-1.16-2.82-1.8-4.34-.64-1.52-1.3-3.07-1.97-4.66s-1.3-3.07-1.9-4.46c-.59-1.39-1.11-2.62-1.56-3.67-.45-1.06-.78-1.84-1.01-2.35.42.06.8.12,1.15.17.35.05.7.07,1.06.07s.7-.02,1.06-.07c.35-.05.74-.1,1.15-.17.99,3.07,2.1,6.11,3.31,9.12,1.22,3.01,2.5,6.11,3.84,9.31,1.34-2.82,2.63-5.82,3.86-9.02,1.23-3.2,2.33-6.34,3.29-9.41.64.16,1.17.24,1.58.24s.94-.08,1.58-.24c-.22.45-.58,1.21-1.08,2.28-.5,1.07-1.09,2.35-1.78,3.84-.69,1.49-1.44,3.14-2.26,4.94-.82,1.81-1.65,3.66-2.5,5.57-.85,1.9-1.69,3.79-2.52,5.66-.83,1.87-1.6,3.65-2.3,5.33-.7,1.68-1.32,3.2-1.85,4.56-.53,1.36-.92,2.44-1.18,3.24-.64-.16-1.18-.24-1.63-.24s-.99.08-1.63.24c2.53-4.19,4.67-8.38,6.43-12.58Z"/>
  <path d="M194.69,17.26c-.93-1.23-2.21-1.85-3.84-1.85-2.24,0-3.88.69-4.92,2.06-1.04,1.38-1.56,3.31-1.56,5.81v4.08c0,1.44.02,2.95.07,4.54.05,1.58.15,3.02.31,4.3-.74-.06-1.46-.1-2.16-.1s-1.42.03-2.16.1c.16-1.28.26-2.71.31-4.3s.07-3.1.07-4.54v-4.99c0-1.44-.02-2.95-.07-4.54s-.15-3.06-.31-4.44c.9.16,1.62.24,2.16.24.26,0,.54-.02.84-.07.3-.05.66-.1,1.08-.17-.1,1.28-.14,2.56-.14,3.84h.1c.9-1.38,1.97-2.44,3.22-3.19,1.25-.75,2.74-1.13,4.46-1.13.9,0,1.8.13,2.71.38.91.26,1.74.7,2.47,1.32.74.62,1.34,1.47,1.8,2.54.46,1.07.7,2.44.7,4.1,0,1.38-.03,2.79-.1,4.25-.06,1.46-.1,3-.1,4.63v3.12c0,.51,0,1.02.02,1.51.02.5.04.97.07,1.42-.64-.06-1.31-.1-2.02-.1s-1.33.03-1.97.1c.06-1.66.14-3.38.22-5.14.08-1.76.12-3.57.12-5.42v-2.93c0-2.4-.46-4.22-1.39-5.45Z"/>
  <path d="M244.97,35.06c-.62.3-1.38.58-2.26.82-.88.24-1.86.46-2.95.65-1.09.19-2.22.29-3.41.29-2.53,0-4.86-.36-7.01-1.08-2.14-.72-3.99-1.82-5.54-3.29-1.55-1.47-2.77-3.27-3.65-5.4-.88-2.13-1.32-4.55-1.32-7.27s.44-5.14,1.32-7.27c.88-2.13,2.11-3.93,3.7-5.4,1.58-1.47,3.48-2.59,5.69-3.36s4.64-1.15,7.3-1.15c2.11,0,4.04.22,5.78.65s3.29.95,4.63,1.56c-.26.45-.46,1.06-.62,1.82-.16.77-.29,1.41-.38,1.92l-.29.1c-.32-.38-.77-.82-1.34-1.3s-1.25-.94-2.02-1.39c-.77-.45-1.63-.82-2.59-1.13-.96-.3-2.02-.46-3.17-.46-1.89,0-3.64.3-5.26.91-1.62.61-3.02,1.54-4.22,2.81-1.2,1.26-2.14,2.86-2.81,4.8-.67,1.94-1.01,4.23-1.01,6.89s.34,4.95,1.01,6.89c.67,1.94,1.61,3.54,2.81,4.8,1.2,1.26,2.61,2.2,4.22,2.81,1.62.61,3.37.91,5.26.91,1.15,0,2.22-.14,3.19-.43.98-.29,1.87-.63,2.69-1.03.82-.4,1.55-.83,2.21-1.3.66-.46,1.21-.87,1.66-1.22l.19.19-.43,2.83c-.29.26-.74.54-1.37.84Z"/>
  <path d="M250.51,24.86c0-2.18.34-4.02,1.03-5.54.69-1.52,1.59-2.75,2.71-3.7,1.12-.94,2.38-1.63,3.77-2.06,1.39-.43,2.78-.65,4.15-.65s2.8.22,4.18.65c1.38.43,2.62,1.12,3.74,2.06,1.12.94,2.02,2.18,2.71,3.7.69,1.52,1.03,3.37,1.03,5.54s-.34,4.02-1.03,5.54c-.69,1.52-1.59,2.75-2.71,3.7-1.12.94-2.37,1.61-3.74,1.99-1.38.38-2.77.58-4.18.58s-2.76-.19-4.15-.58-2.65-1.05-3.77-1.99c-1.12-.94-2.02-2.18-2.71-3.7-.69-1.52-1.03-3.37-1.03-5.54ZM254.74,24.86c0,1.34.12,2.64.36,3.89.24,1.25.65,2.36,1.22,3.34.58.98,1.34,1.75,2.3,2.33s2.14.86,3.55.86,2.59-.29,3.55-.86,1.73-1.35,2.3-2.33c.58-.98.98-2.09,1.22-3.34.24-1.25.36-2.54.36-3.89s-.12-2.64-.36-3.89c-.24-1.25-.65-2.36-1.22-3.34-.58-.98-1.34-1.75-2.3-2.33-.96-.58-2.14-.86-3.55-.86s-2.59.29-3.55.86c-.96.58-1.73,1.35-2.3,2.33-.58.98-.98,2.09-1.22,3.34-.24,1.25-.36,2.54-.36,3.89Z"/>
  <path d="M280.39,10.27c-.02-1.28-.04-2.54-.07-3.79-.03-1.25-.07-2.44-.12-3.58-.05-1.14-.1-2.1-.17-2.9.9.16,1.62.24,2.16.24s1.26-.08,2.16-.24c-.06.8-.12,1.77-.17,2.9-.05,1.14-.09,2.33-.12,3.58-.03,1.25-.06,2.51-.07,3.79-.02,1.28-.02,2.46-.02,3.55v8.69c0,1.09,0,2.27.02,3.55.02,1.28.04,2.54.07,3.79.03,1.25.07,2.43.12,3.55.05,1.12.1,2.05.17,2.78-.74-.06-1.46-.1-2.16-.1s-1.42.03-2.16.1c.06-.74.12-1.66.17-2.78.05-1.12.09-2.3.12-3.55.03-1.25.06-2.51.07-3.79.02-1.28.02-2.46.02-3.55v-8.69c0-1.09,0-2.27-.02-3.55Z"/>
  <path d="M290.54,25.54c0-3.94.94-7.02,2.81-9.26,1.87-2.24,4.6-3.36,8.18-3.36,1.7,0,3.16.26,4.39.79,1.23.53,2.26,1.23,3.1,2.11.83.88,1.45,1.91,1.85,3.1.4,1.18.6,2.45.6,3.79,0,.32,0,.63-.02.94-.02.3-.04.62-.07.94-1.73-.03-3.44-.06-5.14-.1-1.7-.03-3.41-.05-5.14-.05-1.06,0-2.1.02-3.14.05-1.04.03-2.09.06-3.14.1-.03.16-.05.4-.05.72v.62c0,1.25.18,2.42.55,3.5.37,1.09.9,2.02,1.61,2.81.7.79,1.57,1.41,2.59,1.87,1.02.46,2.21.7,3.55.7.64,0,1.3-.09,1.97-.26.67-.18,1.33-.42,1.97-.72.64-.3,1.24-.66,1.8-1.08.56-.42,1.05-.86,1.46-1.34l.24.14-.29,2.35c-.96.77-2.15,1.42-3.58,1.97-1.42.54-2.9.82-4.44.82-1.73,0-3.3-.26-4.73-.79-1.42-.53-2.66-1.3-3.7-2.3-1.04-1.01-1.84-2.2-2.4-3.58-.56-1.38-.84-2.86-.84-4.46ZM301.63,14.45c-1.18,0-2.18.27-3,.82-.82.54-1.49,1.22-2.02,2.04s-.93,1.71-1.2,2.69c-.27.98-.44,1.9-.5,2.76.99.03,2.02.06,3.1.1,1.07.03,2.12.05,3.14.05s2.13-.02,3.22-.05c1.09-.03,2.14-.06,3.17-.1,0-.86-.07-1.78-.22-2.74s-.43-1.86-.86-2.69c-.43-.83-1.03-1.52-1.8-2.06-.77-.54-1.78-.82-3.02-.82Z"/>
  <path d="M316.54,17.83c-.05-1.58-.15-3.06-.31-4.44.9.16,1.62.24,2.16.24.26,0,.54-.02.84-.07.3-.05.66-.1,1.08-.17-.1,1.28-.14,2.56-.14,3.84h.1c1.7-2.88,4.08-4.32,7.15-4.32.8,0,1.58.12,2.35.36.77.24,1.46.57,2.09.98.62.42,1.16.92,1.61,1.51.45.59.75,1.22.91,1.9h.1c.77-1.54,1.82-2.71,3.14-3.53,1.33-.82,2.86-1.22,4.58-1.22,1.06,0,2.03.14,2.93.43.9.29,1.67.74,2.33,1.34.66.61,1.17,1.39,1.54,2.35.37.96.55,2.11.55,3.46,0,.54-.02,1.14-.05,1.78-.03.64-.06,1.38-.1,2.23-.03.85-.06,1.81-.1,2.88-.03,1.07-.05,2.31-.05,3.72,0,.86,0,1.7.02,2.5.02.8.06,1.66.12,2.59-.35-.06-.7-.1-1.06-.1h-2.06c-.35,0-.7.03-1.06.1.1-.8.2-2.42.31-4.85.11-2.43.17-5.82.17-10.18,0-.8-.09-1.55-.26-2.26-.18-.7-.46-1.31-.84-1.82-.38-.51-.9-.92-1.54-1.22-.64-.3-1.44-.46-2.4-.46-1.15,0-2.13.22-2.93.67-.8.45-1.42.98-1.87,1.58-.26.35-.46.7-.6,1.06-.14.35-.26.89-.34,1.61-.08.72-.14,1.73-.17,3.02-.03,1.3-.05,3.08-.05,5.35,0,1.38.02,2.63.07,3.77.05,1.14.1,2.38.17,3.72-.74-.06-1.44-.1-2.11-.1s-1.38.03-2.11.1c.16-1.76.27-3.55.34-5.38.06-1.82.1-3.62.1-5.38,0-1.5,0-2.68-.02-3.53-.02-.85-.06-1.52-.12-2.02-.06-.5-.15-.9-.26-1.22-.11-.32-.26-.67-.46-1.06-.35-.61-.9-1.13-1.66-1.56-.75-.43-1.53-.65-2.33-.65-2.11,0-3.66.69-4.66,2.06-.99,1.38-1.49,3.31-1.49,5.81v4.08c0,1.44.02,2.95.07,4.54.05,1.58.15,3.02.31,4.3-.74-.06-1.46-.1-2.16-.1s-1.42.03-2.16.1c.16-1.28.26-2.71.31-4.3.05-1.58.07-3.1.07-4.54v-4.99c0-1.44-.02-2.95-.07-4.54Z"/>
  <path d="M356.98,15.7c1.44-1.09,2.77-1.82,3.98-2.21,1.22-.38,2.46-.58,3.74-.58,1.15,0,2.21.17,3.17.5s1.78.82,2.45,1.44c.67.62,1.2,1.38,1.58,2.26.38.88.58,1.85.58,2.9,0,1.82-.03,3.64-.1,5.45-.06,1.81-.1,3.72-.1,5.74,0,.38,0,.79.02,1.22.02.43.09.82.22,1.15.13.34.31.62.55.84.24.22.6.34,1.08.34.16,0,.33,0,.5-.02.18-.02.34-.07.5-.17v1.06c-.35.16-.79.29-1.32.38-.53.1-1.11.14-1.75.14-1.02,0-1.81-.26-2.35-.79-.54-.53-.86-1.21-.96-2.04-1.15,1.15-2.29,2-3.41,2.54s-2.5.82-4.13.82c-.8,0-1.58-.11-2.35-.34-.77-.22-1.45-.59-2.04-1.1-.59-.51-1.07-1.13-1.44-1.85-.37-.72-.55-1.54-.55-2.47,0-1.92.6-3.41,1.8-4.46,1.2-1.06,2.86-1.76,4.97-2.11,1.73-.29,3.08-.54,4.06-.74.98-.21,1.7-.42,2.16-.65.46-.22.74-.49.84-.79.1-.3.14-.7.14-1.18,0-.8-.1-1.57-.29-2.3-.19-.74-.5-1.38-.91-1.92-.42-.54-.96-.98-1.63-1.32-.67-.34-1.49-.5-2.45-.5-1.28,0-2.47.29-3.58.86-1.1.58-1.93,1.38-2.47,2.4h-.53v-2.5ZM368.83,24.24c-.54.19-1.18.35-1.9.48-.72.13-1.45.26-2.18.41-.74.14-1.46.33-2.18.55-.72.22-1.36.53-1.92.91-.56.38-1.01.86-1.34,1.44s-.5,1.31-.5,2.21c0,1.5.43,2.64,1.3,3.41.86.77,1.82,1.15,2.88,1.15,1.22,0,2.33-.34,3.34-1.01,1.01-.67,1.78-1.46,2.33-2.35l.19-7.2Z"/>
  <path d="M394.75,17.26c-.93-1.23-2.21-1.85-3.84-1.85-2.24,0-3.88.69-4.92,2.06-1.04,1.38-1.56,3.31-1.56,5.81v4.08c0,1.44.02,2.95.07,4.54.05,1.58.15,3.02.31,4.3-.74-.06-1.46-.1-2.16-.1s-1.42.03-2.16.1c.16-1.28.26-2.71.31-4.3s.07-3.1.07-4.54v-4.99c0-1.44-.02-2.95-.07-4.54s-.15-3.06-.31-4.44c.9.16,1.62.24,2.16.24.26,0,.54-.02.84-.07.3-.05.66-.1,1.08-.17-.1,1.28-.14,2.56-.14,3.84h.1c.9-1.38,1.97-2.44,3.22-3.19,1.25-.75,2.74-1.13,4.46-1.13.9,0,1.8.13,2.71.38.91.26,1.74.7,2.47,1.32.74.62,1.34,1.47,1.8,2.54.46,1.07.7,2.44.7,4.1,0,1.38-.03,2.79-.1,4.25-.06,1.46-.1,3-.1,4.63v3.12c0,.51,0,1.02.02,1.51.02.5.04.97.07,1.42-.64-.06-1.31-.1-2.02-.1s-1.33.03-1.97.1c.06-1.66.14-3.38.22-5.14.08-1.76.12-3.57.12-5.42v-2.93c0-2.4-.46-4.22-1.39-5.45Z"/>
</svg>